<?xml version="1.0" standalone="no"?>
<!DOCTYPE svg PUBLIC "-//W3C//DTD SVG 20010904//EN"
 "http://www.w3.org/TR/2001/REC-SVG-20010904/DTD/svg10.dtd">
<svg version="1.0" xmlns="http://www.w3.org/2000/svg"
 width="300.000000pt" height="300.000000pt" viewBox="0 0 300.000000 300.000000"
 preserveAspectRatio="xMidYMid meet">

<g transform="translate(0.000000,300.000000) scale(0.100000,-0.100000)"
fill="#000000" stroke="none">
<path d="M1314 2920 c-611 -80 -1110 -540 -1246 -1150 -31 -142 -33 -445 -4
-585 68 -323 246 -627 485 -828 245 -207 509 -316 839 -348 404 -40 832 117
1137 416 199 195 325 415 397 694 26 102 31 138 35 297 5 144 2 203 -12 285
-23 143 -76 301 -146 438 -217 425 -641 721 -1119 780 -95 12 -275 12 -366 1z
m-186 -830 l52 1 0 -66 c0 -63 -1 -65 -26 -65 -16 0 -37 12 -54 30 -45 48
-100 37 -120 -26 -28 -83 13 -143 93 -136 24 3 22 32 -3 32 -16 0 -20 7 -20
35 l0 35 70 0 70 0 0 -80 c0 -91 0 -91 -96 -110 -116 -23 -216 30 -243 127 -6
21 -11 45 -11 53 0 34 22 91 47 121 38 44 78 60 138 54 28 -3 74 -5 103 -5z
m705 0 l47 1 0 -50 0 -51 -34 0 c-18 0 -39 7 -46 15 -7 8 -26 15 -42 15 -49 0
-31 -30 30 -50 62 -21 98 -51 107 -91 21 -95 -72 -177 -154 -136 -18 9 -33 11
-37 6 -3 -5 -21 -9 -40 -9 l-34 0 0 55 0 55 34 0 c19 0 38 -5 41 -11 12 -18
49 -27 68 -17 15 7 16 12 6 24 -6 8 -18 14 -27 14 -32 0 -98 41 -116 71 -32
55 -8 135 49 160 11 5 38 6 60 4 22 -3 61 -5 88 -5z m-309 -14 c65 -27 74
-126 17 -178 -21 -19 -45 -28 -85 -33 -46 -6 -56 -11 -56 -26 0 -11 7 -19 15
-19 11 0 15 -11 15 -40 l0 -40 -95 0 -95 0 0 40 c0 29 4 40 15 40 12 0 15 18
15 100 0 82 -3 100 -15 100 -10 0 -15 11 -15 35 l0 35 125 0 c84 0 137 -5 159
-14z m766 -644 c0 -25 25 -6 34 26 11 40 31 41 51 2 23 -44 19 -78 -14 -111
-47 -47 -117 -34 -146 27 -19 41 -11 78 24 105 l26 21 12 -29 c7 -15 12 -34
13 -41z m-1574 -7 c4 -15 1 -32 -6 -40 -17 -21 -104 -20 -124 1 -38 37 -10 64
66 64 53 0 58 -2 64 -25z m232 -3 c5 -36 -15 -52 -67 -52 -51 0 -71 13 -71 45
0 32 9 36 75 33 54 -3 60 -5 63 -26z m230 16 c31 -31 -2 -68 -63 -68 -61 0
-94 37 -63 68 16 16 110 16 126 0z m240 -16 c5 -36 -15 -52 -67 -52 -51 0 -71
13 -71 45 0 32 9 36 75 33 54 -3 60 -5 63 -26z m230 16 c31 -31 -2 -68 -62
-68 -56 0 -81 18 -72 53 6 25 10 27 64 27 32 0 63 -5 70 -12z m240 -16 c5 -36
-15 -52 -67 -52 -51 0 -71 13 -71 45 0 32 9 36 75 33 54 -3 60 -5 63 -26z
m232 9 c13 -25 13 -27 -6 -45 -20 -21 -107 -22 -124 -1 -7 8 -10 25 -6 40 6
23 11 25 66 25 48 0 61 -4 70 -19z"/>
<path d="M1406 2012 c-3 -3 -6 -20 -6 -39 0 -26 4 -33 19 -33 25 0 44 25 36
48 -6 19 -38 35 -49 24z"/>
</g>
</svg>
